<svg width="32" height="32" viewBox="0 0 32 32" fill="none" xmlns="http://www.w3.org/2000/svg">
<path d="M25.8683 5.48938H6.11047V23.4468H25.8683V5.48938Z" fill="white"/>
<path fill-rule="evenodd" clip-rule="evenodd" d="M31.9893 16C31.9893 24.8249 24.8307 31.9787 16 31.9787C7.1693 31.9787 0.0106201 24.8249 0.0106201 16C0.0106201 7.17516 7.1693 0.0212402 16 0.0212402C24.8307 0.0212402 31.9893 7.17516 31.9893 16ZM11.469 22.3587H8.36596C7.71391 22.3587 7.39183 22.3587 7.19544 22.2332C6.98332 22.0957 6.8537 21.868 6.83799 21.6168C6.82619 21.3853 6.98726 21.1026 7.30935 20.5373L14.9712 7.04113C15.2973 6.46803 15.4622 6.18147 15.6704 6.0755C15.8943 5.96167 16.1614 5.96167 16.3853 6.0755C16.5935 6.18147 16.7585 6.46803 17.0845 7.04113L18.6596 9.78888L18.6676 9.8029C19.0198 10.4177 19.1983 10.7295 19.2763 11.0568C19.3627 11.414 19.3627 11.7908 19.2763 12.148C19.1977 12.4777 19.021 12.7918 18.6635 13.4159L14.6389 20.5255L14.6285 20.5438C14.2741 21.1636 14.0944 21.4778 13.8455 21.7149C13.5744 21.974 13.2484 22.1623 12.891 22.2685C12.5649 22.3587 12.1997 22.3587 11.469 22.3587ZM19.3054 22.3587H23.7517C24.4077 22.3587 24.7377 22.3587 24.9342 22.2293C25.1463 22.0919 25.2798 21.8602 25.2917 21.6091C25.303 21.3851 25.1454 21.1134 24.8367 20.581C24.8261 20.5628 24.8154 20.5444 24.8046 20.5256L22.5773 16.718L22.552 16.6752C22.239 16.1463 22.081 15.8792 21.8781 15.776C21.6544 15.6621 21.391 15.6621 21.1672 15.776C20.963 15.8819 20.798 16.1606 20.472 16.722L18.2527 20.5296L18.2451 20.5427C17.9202 21.1031 17.7578 21.3832 17.7695 21.6129C17.7852 21.8642 17.9149 22.0957 18.127 22.2332C18.3195 22.3587 18.6494 22.3587 19.3054 22.3587Z" fill="#E84142"/>
</svg>
